<svg id="Layer_1" data-name="Layer 1" xmlns="http://www.w3.org/2000/svg" viewBox="0 0 1280 1024"><defs><style>.cls-1{fill:none;stroke:#000;stroke-miterlimit:10;stroke-width:2px;}</style></defs><polygon class="cls-1" points="138 186.7 150 460.75 250.19 401.62 164.09 419.82 138 186.7"/><polygon class="cls-1" points="242.36 225.37 262.71 412.99 274.71 436.87 304.75 436.87 317.5 409.58 317.5 205.77 304.98 375.47 300.28 390.25 282.54 386.84 269.5 376.61 242.36 225.37"/><polygon class="cls-1" points="351 156 355.85 492.59 362.13 324.3 383.35 476.67 372.19 321.32 420.6 156 366.13 286.77 351 156"/><polygon class="cls-1" points="447.29 423.4 465.56 177.78 524 503 474.43 285.81 447.29 423.4"/><polygon class="cls-1" points="648.28 191.77 640 426.11 738.81 400.24 748.51 262.73 648.28 191.77"/><polygon class="cls-1" points="792.52 262.13 778.45 390.11 806.61 441.17 863.32 441.17 889.79 401 889.79 262.13 857.59 236.26 812.64 232.85 792.52 262.13"/><polygon class="cls-1" points="900.27 439.61 932.52 219.82 956.85 401.1 972.01 214.59 1013.42 460.61 976.65 294.77 961.09 442.76 926.86 304.36 900.27 434.36 900.27 439.61"/><polygon class="cls-1" points="1040.01 248.58 1051.33 490 1054.15 248.58 1040.01 248.58"/><polygon class="cls-1" points="1169 258.17 1106.29 214.59 1087.2 248.58 1081.88 447.29 1105.07 473.44 1169 473.44 1111.86 453.39 1099.98 428.12 1103.37 260.78 1111.86 235.51 1169 258.17"/></svg>